{
	"asset":{
		"generator":"Khronos glTF Blender I/O v4.1.63",
		"version":"2.0"
	},
	"scene":0,
	"scenes":[
		{
			"name":"Scene",
			"nodes":[
				0,
				1,
				2
			]
		}
	],
	"nodes":[
		{
			"mesh":0,
			"name":"Curve"
		},
		{
			"mesh":1,
			"name":"Curve.010"
		},
		{
			"mesh":2,
			"name":"Curve.001"
		}
	],
	"materials":[
		{
			"doubleSided":true,
			"name":"Material.007",
			"pbrMetallicRoughness":{
				"baseColorFactor":[
					0,
					0.0015176343731582165,
					0.006048834417015314,
					1
				],
				"metallicFactor":0.14680135250091553,
				"roughnessFactor":0.8796296119689941
			}
		},
		{
			"doubleSided":true,
			"name":"Gradient",
			"pbrMetallicRoughness":{
				"metallicFactor":0.4166666865348816,
				"roughnessFactor":0.25925925374031067
			}
		},
		{
			"doubleSided":true,
			"name":"Material.003",
			"pbrMetallicRoughness":{
				"baseColorTexture":{
					"index":0
				},
				"metallicFactor":0,
				"roughnessFactor":0.5
			}
		},
		{
			"doubleSided":true,
			"name":"SVGMat.003",
			"pbrMetallicRoughness":{
				"baseColorFactor":[
					0.06301001459360123,
					0.05951123684644699,
					0.04970656707882881,
					1
				],
				"metallicFactor":0,
				"roughnessFactor":0.4000000059604645
			}
		}
	],
	"meshes":[
		{
			"name":"Curve.003",
			"primitives":[
				{
					"attributes":{
						"POSITION":0,
						"NORMAL":1,
						"TEXCOORD_0":2
					},
					"indices":3,
					"material":0
				}
			]
		},
		{
			"name":"Curve.001",
			"primitives":[
				{
					"attributes":{
						"POSITION":4,
						"NORMAL":5,
						"TEXCOORD_0":6
					},
					"indices":7,
					"material":1
				},
				{
					"attributes":{
						"POSITION":8,
						"NORMAL":9,
						"TEXCOORD_0":10
					},
					"indices":11,
					"material":2
				},
				{
					"attributes":{
						"POSITION":12,
						"NORMAL":13,
						"TEXCOORD_0":14
					},
					"indices":15,
					"material":3
				}
			]
		},
		{
			"name":"Curve.002",
			"primitives":[
				{
					"attributes":{
						"POSITION":16,
						"NORMAL":17,
						"TEXCOORD_0":18
					},
					"indices":19,
					"material":1
				}
			]
		}
	],
	"textures":[
		{
			"sampler":0,
			"source":0
		}
	],
	"images":[
		{
			"mimeType":"image/png",
			"name":"card",
			"uri":"card.png"
		}
	],
	"accessors":[
		{
			"bufferView":0,
			"componentType":5126,
			"count":4800,
			"max":[
				2.4951424598693848,
				0.032000601291656494,
				1.5729424953460693
			],
			"min":[
				-2.495142936706543,
				-0.027067504823207855,
				-1.5729423761367798
			],
			"type":"VEC3"
		},
		{
			"bufferView":1,
			"componentType":5126,
			"count":4800,
			"type":"VEC3"
		},
		{
			"bufferView":2,
			"componentType":5126,
			"count":4800,
			"type":"VEC2"
		},
		{
			"bufferView":3,
			"componentType":5123,
			"count":7176,
			"type":"SCALAR"
		},
		{
			"bufferView":4,
			"componentType":5126,
			"count":3447,
			"max":[
				-1.736305594444275,
				0.00845647044479847,
				1.1527115106582642
			],
			"min":[
				-1.9485098123550415,
				-0.013184962794184685,
				-1.1732133626937866
			],
			"type":"VEC3"
		},
		{
			"bufferView":5,
			"componentType":5126,
			"count":3447,
			"type":"VEC3"
		},
		{
			"bufferView":6,
			"componentType":5126,
			"count":3447,
			"type":"VEC2"
		},
		{
			"bufferView":7,
			"componentType":5123,
			"count":7404,
			"type":"SCALAR"
		},
		{
			"bufferView":8,
			"componentType":5126,
			"count":1622,
			"max":[
				-1.3017027378082275,
				0.00774797797203064,
				-0.044514283537864685
			],
			"min":[
				-1.939241647720337,
				-0.012160390615463257,
				-0.4968660771846771
			],
			"type":"VEC3"
		},
		{
			"bufferView":9,
			"componentType":5126,
			"count":1622,
			"type":"VEC3"
		},
		{
			"bufferView":10,
			"componentType":5126,
			"count":1622,
			"type":"VEC2"
		},
		{
			"bufferView":11,
			"componentType":5123,
			"count":4032,
			"type":"SCALAR"
		},
		{
			"bufferView":12,
			"componentType":5126,
			"count":529,
			"max":[
				-1.2965495586395264,
				0.00774797797203064,
				-0.04088199883699417
			],
			"min":[
				-1.944383144378662,
				-0.012160390615463257,
				-0.5004962682723999
			],
			"type":"VEC3"
		},
		{
			"bufferView":13,
			"componentType":5126,
			"count":529,
			"type":"VEC3"
		},
		{
			"bufferView":14,
			"componentType":5126,
			"count":529,
			"type":"VEC2"
		},
		{
			"bufferView":15,
			"componentType":5123,
			"count":1056,
			"type":"SCALAR"
		},
		{
			"bufferView":16,
			"componentType":5126,
			"count":3037,
			"max":[
				2.4951424598693848,
				0.02424713969230652,
				1.5729424953460693
			],
			"min":[
				-0.8371071219444275,
				0.0003282912075519562,
				-1.3543332815170288
			],
			"type":"VEC3"
		},
		{
			"bufferView":17,
			"componentType":5126,
			"count":3037,
			"type":"VEC3"
		},
		{
			"bufferView":18,
			"componentType":5126,
			"count":3037,
			"type":"VEC2"
		},
		{
			"bufferView":19,
			"componentType":5123,
			"count":8850,
			"type":"SCALAR"
		}
	],
	"bufferViews":[
		{
			"buffer":0,
			"byteLength":57600,
			"byteOffset":0,
			"target":34962
		},
		{
			"buffer":0,
			"byteLength":57600,
			"byteOffset":57600,
			"target":34962
		},
		{
			"buffer":0,
			"byteLength":38400,
			"byteOffset":115200,
			"target":34962
		},
		{
			"buffer":0,
			"byteLength":14352,
			"byteOffset":153600,
			"target":34963
		},
		{
			"buffer":0,
			"byteLength":41364,
			"byteOffset":167952,
			"target":34962
		},
		{
			"buffer":0,
			"byteLength":41364,
			"byteOffset":209316,
			"target":34962
		},
		{
			"buffer":0,
			"byteLength":27576,
			"byteOffset":250680,
			"target":34962
		},
		{
			"buffer":0,
			"byteLength":14808,
			"byteOffset":278256,
			"target":34963
		},
		{
			"buffer":0,
			"byteLength":19464,
			"byteOffset":293064,
			"target":34962
		},
		{
			"buffer":0,
			"byteLength":19464,
			"byteOffset":312528,
			"target":34962
		},
		{
			"buffer":0,
			"byteLength":12976,
			"byteOffset":331992,
			"target":34962
		},
		{
			"buffer":0,
			"byteLength":8064,
			"byteOffset":344968,
			"target":34963
		},
		{
			"buffer":0,
			"byteLength":6348,
			"byteOffset":353032,
			"target":34962
		},
		{
			"buffer":0,
			"byteLength":6348,
			"byteOffset":359380,
			"target":34962
		},
		{
			"buffer":0,
			"byteLength":4232,
			"byteOffset":365728,
			"target":34962
		},
		{
			"buffer":0,
			"byteLength":2112,
			"byteOffset":369960,
			"target":34963
		},
		{
			"buffer":0,
			"byteLength":36444,
			"byteOffset":372072,
			"target":34962
		},
		{
			"buffer":0,
			"byteLength":36444,
			"byteOffset":408516,
			"target":34962
		},
		{
			"buffer":0,
			"byteLength":24296,
			"byteOffset":444960,
			"target":34962
		},
		{
			"buffer":0,
			"byteLength":17700,
			"byteOffset":469256,
			"target":34963
		}
	],
	"samplers":[
		{
			"magFilter":9729,
			"minFilter":9987
		}
	],
	"buffers":[
		{
			"byteLength":486956,
			"uri":"Card.bin"
		}
	]
}
