{
	"asset":{
		"generator":"Khronos glTF Blender I/O v4.1.63",
		"version":"2.0"
	},
	"scene":0,
	"scenes":[
		{
			"name":"Scene",
			"nodes":[
				0,
				1,
				2
			]
		}
	],
	"nodes":[
		{
			"mesh":0,
			"name":"Text.001",
			"rotation":[
				0,
				-0.7071068286895752,
				0.7071068286895752,
				1.1520233300643667e-07
			],
			"scale":[
				1.7888846397399902,
				0.2564803957939148,
				1.580671787261963
			],
			"translation":[
				0.5217127799987793,
				-0.2862522304058075,
				-0.0496969074010849
			]
		},
		{
			"mesh":1,
			"name":"Cylinder"
		},
		{
			"mesh":2,
			"name":"Text.003",
			"rotation":[
				0.7071068286895752,
				0,
				0,
				0.7071068286895752
			],
			"scale":[
				1.7888846397399902,
				0.2564803957939148,
				1.580671787261963
			],
			"translation":[
				-0.3757297694683075,
				-0.2862522304058075,
				0.042193517088890076
			]
		}
	],
	"materials":[
		{
			"doubleSided":true,
			"name":"Material.004",
			"pbrMetallicRoughness":{
				"baseColorFactor":[
					0.800000011920929,
					0.800000011920929,
					0.800000011920929,
					1
				],
				"metallicFactor":0.07727272808551788,
				"roughnessFactor":0.8636363744735718
			}
		},
		{
			"doubleSided":true,
			"name":"Material",
			"normalTexture":{
				"index":0
			},
			"pbrMetallicRoughness":{
				"baseColorTexture":{
					"index":1
				},
				"metallicRoughnessTexture":{
					"index":2
				}
			}
		},
		{
			"doubleSided":true,
			"name":"Material.003",
			"pbrMetallicRoughness":{
				"baseColorFactor":[
					0.6724388599395752,
					0.6724438667297363,
					0.6724435687065125,
					1
				],
				"metallicFactor":0
			}
		}
	],
	"meshes":[
		{
			"name":"\u20bfitcoin.001",
			"primitives":[
				{
					"attributes":{
						"POSITION":0,
						"NORMAL":1,
						"TEXCOORD_0":2
					},
					"indices":3,
					"material":0
				}
			]
		},
		{
			"name":"Cylinder",
			"primitives":[
				{
					"attributes":{
						"POSITION":4,
						"NORMAL":5,
						"TEXCOORD_0":6
					},
					"indices":7,
					"material":1
				}
			]
		},
		{
			"name":"\u20bfitcoin.003",
			"primitives":[
				{
					"attributes":{
						"POSITION":8,
						"NORMAL":9,
						"TEXCOORD_0":10
					},
					"indices":3,
					"material":2
				}
			]
		}
	],
	"textures":[
		{
			"sampler":0,
			"source":0
		},
		{
			"sampler":0,
			"source":1
		},
		{
			"sampler":0,
			"source":2
		}
	],
	"images":[
		{
			"mimeType":"image/png",
			"name":"Coin_Normal",
			"uri":"Coin_Normal.png"
		},
		{
			"mimeType":"image/png",
			"name":"Coin_Color",
			"uri":"Coin_Color.png"
		},
		{
			"mimeType":"image/png",
			"name":"Coin_Metallic-Coin_Roughness",
			"uri":"Coin_Metallic-Coin_Roughness.png"
		}
	],
	"accessors":[
		{
			"bufferView":0,
			"componentType":5126,
			"count":4256,
			"max":[
				0.4510159492492676,
				0.10000001639127731,
				0.062046442180871964
			],
			"min":[
				0.07097159326076508,
				-0.10000000149011612,
				-0.5547895431518555
			],
			"type":"VEC3"
		},
		{
			"bufferView":1,
			"componentType":5126,
			"count":4256,
			"type":"VEC3"
		},
		{
			"bufferView":2,
			"componentType":5126,
			"count":4256,
			"type":"VEC2"
		},
		{
			"bufferView":3,
			"componentType":5123,
			"count":15864,
			"type":"SCALAR"
		},
		{
			"bufferView":4,
			"componentType":5126,
			"count":22808,
			"max":[
				1.039249062538147,
				1.127442717552185,
				0.16178975999355316
			],
			"min":[
				-0.9607510566711426,
				-0.8725572824478149,
				-0.16178975999355316
			],
			"type":"VEC3"
		},
		{
			"bufferView":5,
			"componentType":5126,
			"count":22808,
			"type":"VEC3"
		},
		{
			"bufferView":6,
			"componentType":5126,
			"count":22808,
			"type":"VEC2"
		},
		{
			"bufferView":7,
			"componentType":5123,
			"count":103656,
			"type":"SCALAR"
		},
		{
			"bufferView":8,
			"componentType":5126,
			"count":4256,
			"max":[
				0.4510159492492676,
				0.10000001639127731,
				0.062046442180871964
			],
			"min":[
				0.07097159326076508,
				-0.10000000149011612,
				-0.5547895431518555
			],
			"type":"VEC3"
		},
		{
			"bufferView":9,
			"componentType":5126,
			"count":4256,
			"type":"VEC3"
		},
		{
			"bufferView":10,
			"componentType":5126,
			"count":4256,
			"type":"VEC2"
		}
	],
	"bufferViews":[
		{
			"buffer":0,
			"byteLength":51072,
			"byteOffset":0,
			"target":34962
		},
		{
			"buffer":0,
			"byteLength":51072,
			"byteOffset":51072,
			"target":34962
		},
		{
			"buffer":0,
			"byteLength":34048,
			"byteOffset":102144,
			"target":34962
		},
		{
			"buffer":0,
			"byteLength":31728,
			"byteOffset":136192,
			"target":34963
		},
		{
			"buffer":0,
			"byteLength":273696,
			"byteOffset":167920,
			"target":34962
		},
		{
			"buffer":0,
			"byteLength":273696,
			"byteOffset":441616,
			"target":34962
		},
		{
			"buffer":0,
			"byteLength":182464,
			"byteOffset":715312,
			"target":34962
		},
		{
			"buffer":0,
			"byteLength":207312,
			"byteOffset":897776,
			"target":34963
		},
		{
			"buffer":0,
			"byteLength":51072,
			"byteOffset":1105088,
			"target":34962
		},
		{
			"buffer":0,
			"byteLength":51072,
			"byteOffset":1156160,
			"target":34962
		},
		{
			"buffer":0,
			"byteLength":34048,
			"byteOffset":1207232,
			"target":34962
		}
	],
	"samplers":[
		{
			"magFilter":9729,
			"minFilter":9987
		}
	],
	"buffers":[
		{
			"byteLength":1241280,
			"uri":"bitcoin.bin"
		}
	]
}
