{
	"asset":{
		"generator":"Khronos glTF Blender I/O v4.1.63",
		"version":"2.0"
	},
	"scene":0,
	"scenes":[
		{
			"name":"Scene",
			"nodes":[
				0,
				1,
				2
			]
		}
	],
	"nodes":[
		{
			"mesh":0,
			"name":"Text.001",
			"rotation":[
				0,
				-0.7071068286895752,
				0.7071068286895752,
				1.1520233300643667e-07
			],
			"scale":[
				1.7888846397399902,
				0.2564803957939148,
				1.7888846397399902
			],
			"translation":[
				0.4549064636230469,
				-0.46431076526641846,
				-0.051360227167606354
			]
		},
		{
			"mesh":1,
			"name":"Text.002",
			"rotation":[
				0.7071068286895752,
				0,
				0,
				0.7071068286895752
			],
			"scale":[
				1.7888846397399902,
				0.2567434310913086,
				1.7888846397399902
			],
			"translation":[
				-0.47983455657958984,
				-0.46431076526641846,
				0.04866541922092438
			]
		},
		{
			"mesh":2,
			"name":"Cylinder.001",
			"scale":[
				1,
				1,
				0.029123438522219658
			]
		}
	],
	"materials":[
		{
			"doubleSided":true,
			"name":"Material.004",
			"pbrMetallicRoughness":{
				"baseColorFactor":[
					0.800000011920929,
					0.800000011920929,
					0.800000011920929,
					1
				],
				"metallicFactor":0.07727272808551788,
				"roughnessFactor":0.8636363744735718
			}
		},
		{
			"doubleSided":true,
			"name":"Material.005",
			"pbrMetallicRoughness":{
				"baseColorFactor":[
					0.800000011920929,
					0.800000011920929,
					0.800000011920929,
					1
				],
				"metallicFactor":0
			}
		},
		{
			"doubleSided":true,
			"name":"Material.001",
			"normalTexture":{
				"index":0
			},
			"pbrMetallicRoughness":{
				"baseColorTexture":{
					"index":1
				},
				"metallicFactor":0.6272724866867065,
				"metallicRoughnessTexture":{
					"index":2
				}
			}
		}
	],
	"meshes":[
		{
			"name":"\u20bfitcoin.001",
			"primitives":[
				{
					"attributes":{
						"POSITION":0,
						"NORMAL":1,
						"TEXCOORD_0":2
					},
					"indices":3,
					"material":0
				}
			]
		},
		{
			"name":"\u20bfitcoin.002",
			"primitives":[
				{
					"attributes":{
						"POSITION":4,
						"NORMAL":5,
						"TEXCOORD_0":6
					},
					"indices":3,
					"material":1
				}
			]
		},
		{
			"name":"Cylinder.003",
			"primitives":[
				{
					"attributes":{
						"POSITION":7,
						"NORMAL":8,
						"TEXCOORD_0":9
					},
					"indices":10,
					"material":2
				}
			]
		}
	],
	"textures":[
		{
			"sampler":0,
			"source":0
		},
		{
			"sampler":0,
			"source":1
		},
		{
			"sampler":0,
			"source":2
		}
	],
	"images":[
		{
			"mimeType":"image/png",
			"name":"Coin_Normal",
			"uri":"Coin_Normal.png"
		},
		{
			"mimeType":"image/png",
			"name":"Coin_Color",
			"uri":"Coin_Color.png"
		},
		{
			"mimeType":"image/png",
			"name":"Coin_Roughness",
			"uri":"Coin_Roughness.png"
		}
	],
	"accessors":[
		{
			"bufferView":0,
			"componentType":5126,
			"count":4255,
			"max":[
				0.4510159492492676,
				0.10000001639127731,
				0.062046442180871964
			],
			"min":[
				0.07097159326076508,
				-0.10000000149011612,
				-0.5547895431518555
			],
			"type":"VEC3"
		},
		{
			"bufferView":1,
			"componentType":5126,
			"count":4255,
			"type":"VEC3"
		},
		{
			"bufferView":2,
			"componentType":5126,
			"count":4255,
			"type":"VEC2"
		},
		{
			"bufferView":3,
			"componentType":5123,
			"count":15864,
			"type":"SCALAR"
		},
		{
			"bufferView":4,
			"componentType":5126,
			"count":4255,
			"max":[
				0.4510159492492676,
				0.10000001639127731,
				0.062046442180871964
			],
			"min":[
				0.07097159326076508,
				-0.10000000149011612,
				-0.5547895431518555
			],
			"type":"VEC3"
		},
		{
			"bufferView":5,
			"componentType":5126,
			"count":4255,
			"type":"VEC3"
		},
		{
			"bufferView":6,
			"componentType":5126,
			"count":4255,
			"type":"VEC2"
		},
		{
			"bufferView":7,
			"componentType":5126,
			"count":138596,
			"max":[
				1.0148905515670776,
				1.0148905515670776,
				3.897216796875
			],
			"min":[
				-1.0148905515670776,
				-1.0148905515670776,
				-3.897216796875
			],
			"type":"VEC3"
		},
		{
			"bufferView":8,
			"componentType":5126,
			"count":138596,
			"type":"VEC3"
		},
		{
			"bufferView":9,
			"componentType":5126,
			"count":138596,
			"type":"VEC2"
		},
		{
			"bufferView":10,
			"componentType":5125,
			"count":821760,
			"type":"SCALAR"
		}
	],
	"bufferViews":[
		{
			"buffer":0,
			"byteLength":51060,
			"byteOffset":0,
			"target":34962
		},
		{
			"buffer":0,
			"byteLength":51060,
			"byteOffset":51060,
			"target":34962
		},
		{
			"buffer":0,
			"byteLength":34040,
			"byteOffset":102120,
			"target":34962
		},
		{
			"buffer":0,
			"byteLength":31728,
			"byteOffset":136160,
			"target":34963
		},
		{
			"buffer":0,
			"byteLength":51060,
			"byteOffset":167888,
			"target":34962
		},
		{
			"buffer":0,
			"byteLength":51060,
			"byteOffset":218948,
			"target":34962
		},
		{
			"buffer":0,
			"byteLength":34040,
			"byteOffset":270008,
			"target":34962
		},
		{
			"buffer":0,
			"byteLength":1663152,
			"byteOffset":304048,
			"target":34962
		},
		{
			"buffer":0,
			"byteLength":1663152,
			"byteOffset":1967200,
			"target":34962
		},
		{
			"buffer":0,
			"byteLength":1108768,
			"byteOffset":3630352,
			"target":34962
		},
		{
			"buffer":0,
			"byteLength":3287040,
			"byteOffset":4739120,
			"target":34963
		}
	],
	"samplers":[
		{
			"magFilter":9729,
			"minFilter":9987
		}
	],
	"buffers":[
		{
			"byteLength":8026160,
			"uri":"bitcoin.bin"
		}
	]
}
