<svg width="182" height="31" viewBox="0 0 182 31" fill="none" xmlns="http://www.w3.org/2000/svg">
<path d="M84.333 0C85.5976 8.65329e-05 86.8071 0.501997 87.6982 1.38965L87.8721 1.57227L98.5254 13.3662L108.469 24.3757C108.62 24.5425 108.834 24.6377 109.059 24.6377H116.035C116.474 24.6377 116.83 24.2819 116.83 23.8429V7.15218C116.83 6.71325 116.474 6.35742 116.035 6.35742H108.94C108.729 6.35742 108.527 6.44116 108.378 6.5902L104.54 10.4283C104.229 10.7386 103.726 10.7386 103.416 10.4283L100.043 7.05612C99.7331 6.74575 99.7331 6.24253 100.043 5.93216L104.579 1.39648C105.473 0.502409 106.687 0 107.951 0H118.419C121.052 0.000176755 123.187 2.13522 123.188 4.76855V26.2266C123.188 28.8601 121.052 30.9949 118.419 30.9951H107.999C106.65 30.9951 105.364 30.4239 104.46 29.4229L93.8066 17.6279L83.8627 6.61944C83.712 6.45262 83.4977 6.35742 83.2729 6.35742H76.2967C75.8578 6.35742 75.502 6.71325 75.502 7.15218V23.8429C75.502 24.2819 75.8578 24.6377 76.2967 24.6377H83.3925C83.6033 24.6377 83.8054 24.554 83.9545 24.4049L87.7925 20.5669C88.1029 20.2565 88.6061 20.2565 88.9165 20.5669L92.2886 23.939C92.599 24.2494 92.599 24.7526 92.2886 25.063L87.7529 29.5986C86.8587 30.4928 85.6454 30.995 84.3809 30.9951H73.9131C71.2795 30.9951 69.1445 28.8602 69.1445 26.2266V4.76855C69.1447 2.1351 71.2796 0 73.9131 0H84.333Z" fill="white"/>
<path d="M6.35742 30.2013C6.35742 30.6403 6.0016 30.9961 5.56266 30.9961H0.79476C0.355826 30.9961 0 30.6403 0 30.2013V0.794761C0 0.355827 0.355826 0 0.79476 0H5.56266C6.0016 0 6.35742 0.355826 6.35742 0.79476V30.2013Z" fill="white"/>
<path d="M38.9434 26.1436C38.9434 28.777 36.8081 30.9118 34.1748 30.9121H31.4385C29.5455 30.9121 27.8316 29.7922 27.0713 28.0586L17.61 6.48064C17.5995 6.4568 17.576 6.44141 17.5499 6.44141C17.5137 6.44141 17.4844 6.47076 17.4844 6.50697V30.2013C17.4844 30.6403 17.1285 30.9961 16.6896 30.9961H11.9217C11.4828 30.9961 11.127 30.6403 11.127 30.2013V4.85254C11.127 2.21894 13.2619 0.0839844 15.8955 0.0839844H18.6318C20.4063 0.0842555 22.0242 1.06781 22.8457 2.61914L22.999 2.9375L32.4594 24.5145C32.4698 24.5383 32.4934 24.5537 32.5194 24.5537C32.5556 24.5537 32.585 24.5244 32.585 24.4882V0.794759C32.585 0.355825 32.9408 0 33.3797 0H38.1486C38.5875 0 38.9434 0.355826 38.9434 0.79476V26.1436Z" fill="white"/>
<path d="M65.9648 5.56266C65.9648 6.0016 65.609 6.35742 65.1701 6.35742H50.8641C50.4252 6.35742 50.0693 6.71325 50.0693 7.15218V11.9211C50.0693 12.36 50.4252 12.7158 50.8641 12.7158H59.0666C59.5055 12.7158 59.8613 13.0716 59.8613 13.5106V18.2795C59.8613 18.7184 59.5055 19.0742 59.0666 19.0742H50.8641C50.4252 19.0742 50.0693 19.43 50.0693 19.869V30.2004C50.0693 30.6393 49.7135 30.9951 49.2746 30.9951H44.5067C44.0677 30.9951 43.7119 30.6393 43.7119 30.2004V4.76855C43.7121 2.13515 45.847 6.63501e-05 48.4805 0H65.1701C65.609 0 65.9648 0.355826 65.9648 0.79476V5.56266Z" fill="white"/>
<path d="M153.388 5.56266C153.388 6.0016 153.032 6.35742 152.593 6.35742H143.851C143.412 6.35742 143.057 6.71325 143.057 7.15218V30.2004C143.057 30.6393 142.701 30.9951 142.262 30.9951H137.493C137.054 30.9951 136.698 30.6393 136.698 30.2004V7.15218C136.698 6.71325 136.342 6.35742 135.903 6.35742H127.161C126.722 6.35742 126.366 6.0016 126.366 5.56266V0.79476C126.366 0.355826 126.722 0 127.161 0H152.593C153.032 0 153.388 0.355826 153.388 0.79476V5.56266Z" fill="white"/>
<path d="M162.925 13.5107C162.925 13.9495 163.281 14.3054 163.72 14.3057H174.847C175.286 14.3056 175.642 13.9496 175.642 13.5107V0.79476C175.642 0.355826 175.997 0 176.436 0H181.204C181.643 0 181.999 0.355826 181.999 0.79476V13.5107C181.999 17.4611 178.797 20.664 174.847 20.6641H173.257C172.818 20.6641 172.462 21.0199 172.462 21.4588V30.2013C172.462 30.6403 172.106 30.9961 171.667 30.9961H166.899C166.46 30.9961 166.104 30.6403 166.104 30.2013V21.4588C166.104 21.0199 165.749 20.6641 165.31 20.6641H163.72C159.77 20.6638 156.567 17.461 156.567 13.5107V0.79476C156.567 0.355826 156.923 0 157.362 0H162.13C162.569 0 162.925 0.355826 162.925 0.79476V13.5107Z" fill="white"/>
</svg>
