{
	"asset":{
		"generator":"Khronos glTF Blender I/O v4.1.63",
		"version":"2.0"
	},
	"extensionsUsed":[
		"KHR_materials_clearcoat",
		"KHR_materials_transmission",
		"KHR_materials_specular",
		"KHR_materials_anisotropy"
	],
	"scene":0,
	"scenes":[
		{
			"name":"Scene",
			"nodes":[
				0,
				1
			]
		}
	],
	"nodes":[
		{
			"mesh":0,
			"name":"Cylinder",
			"scale":[
				1.022699236869812,
				1.022699236869812,
				0.06307423114776611
			],
			"translation":[
				0.0479813814163208,
				0.11829463392496109,
				0.005276314448565245
			]
		},
		{
			"mesh":1,
			"name":"Curve",
			"scale":[
				4.79545259475708,
				4.79545259475708,
				9.91659927368164
			],
			"translation":[
				-0.30317509174346924,
				-0.40766245126724243,
				0.045270875096321106
			]
		}
	],
	"materials":[
		{
			"doubleSided":true,
			"extensions":{
				"KHR_materials_clearcoat":{
					"clearcoatFactor":0.10000000149011612,
					"clearcoatRoughnessFactor":0.029999999329447746
				},
				"KHR_materials_transmission":{
					"transmissionFactor":0.15000000596046448
				},
				"KHR_materials_specular":{
					"specularFactor":0.800000011920929
				},
				"KHR_materials_anisotropy":{
					"anisotropyStrength":0.48770999908447266
				}
			},
			"name":"Material",
			"pbrMetallicRoughness":{
				"baseColorTexture":{
					"index":0
				},
				"metallicFactor":0.4000000059604645,
				"roughnessFactor":0.5
			}
		},
		{
			"doubleSided":true,
			"emissiveFactor":[
				0.30000001192092896,
				0.30000001192092896,
				0.30000001192092896
			],
			"name":"Material.003",
			"pbrMetallicRoughness":{
				"baseColorFactor":[
					0.6724388599395752,
					0.6724438667297363,
					0.6724435687065125,
					1
				],
				"metallicFactor":0
			}
		}
	],
	"meshes":[
		{
			"name":"Cylinder",
			"primitives":[
				{
					"attributes":{
						"POSITION":0,
						"NORMAL":1,
						"TEXCOORD_0":2
					},
					"indices":3,
					"material":0
				}
			]
		},
		{
			"name":"Curve",
			"primitives":[
				{
					"attributes":{
						"POSITION":4,
						"NORMAL":5,
						"TEXCOORD_0":6
					},
					"indices":7,
					"material":1
				}
			]
		}
	],
	"textures":[
		{
			"sampler":0,
			"source":0
		}
	],
	"images":[
		{
			"mimeType":"image/png",
			"name":"Combined",
			"uri":"Combined.png"
		}
	],
	"accessors":[
		{
			"bufferView":0,
			"componentType":5126,
			"count":48972,
			"max":[
				1,
				1,
				2.28118634223938
			],
			"min":[
				-0.9999999403953552,
				-0.9999999403953552,
				-2.28118634223938
			],
			"type":"VEC3"
		},
		{
			"bufferView":1,
			"componentType":5126,
			"count":48972,
			"type":"VEC3"
		},
		{
			"bufferView":2,
			"componentType":5126,
			"count":48972,
			"type":"VEC2"
		},
		{
			"bufferView":3,
			"componentType":5123,
			"count":239214,
			"type":"SCALAR"
		},
		{
			"bufferView":4,
			"componentType":5126,
			"count":3112,
			"max":[
				0.16519680619239807,
				0.2289976179599762,
				0.003024233039468527
			],
			"min":[
				2.8461217880249023e-05,
				0.00026410818099975586,
				-0.010824700817465782
			],
			"type":"VEC3"
		},
		{
			"bufferView":5,
			"componentType":5126,
			"count":3112,
			"type":"VEC3"
		},
		{
			"bufferView":6,
			"componentType":5126,
			"count":3112,
			"type":"VEC2"
		},
		{
			"bufferView":7,
			"componentType":5123,
			"count":8040,
			"type":"SCALAR"
		}
	],
	"bufferViews":[
		{
			"buffer":0,
			"byteLength":587664,
			"byteOffset":0,
			"target":34962
		},
		{
			"buffer":0,
			"byteLength":587664,
			"byteOffset":587664,
			"target":34962
		},
		{
			"buffer":0,
			"byteLength":391776,
			"byteOffset":1175328,
			"target":34962
		},
		{
			"buffer":0,
			"byteLength":478428,
			"byteOffset":1567104,
			"target":34963
		},
		{
			"buffer":0,
			"byteLength":37344,
			"byteOffset":2045532,
			"target":34962
		},
		{
			"buffer":0,
			"byteLength":37344,
			"byteOffset":2082876,
			"target":34962
		},
		{
			"buffer":0,
			"byteLength":24896,
			"byteOffset":2120220,
			"target":34962
		},
		{
			"buffer":0,
			"byteLength":16080,
			"byteOffset":2145116,
			"target":34963
		}
	],
	"samplers":[
		{
			"magFilter":9729,
			"minFilter":9987
		}
	],
	"buffers":[
		{
			"byteLength":2161196,
			"uri":"bitcoin.bin"
		}
	]
}
