<svg width="1623" height="2733" viewBox="0 0 1623 2733" fill="none" xmlns="http://www.w3.org/2000/svg">
<path d="M1336.04 -138.815L1338.03 -137.475C1739.66 133.471 2237.94 343.095 2638.42 409.574L2640.39 409.911L2641.09 411.751C2651.01 437.358 2661.67 464.013 2672.66 491.471C2738.82 656.853 2813.81 844.289 2810.4 1007.99C2809.09 1070.26 2790.86 1124.72 2771.55 1182.38C2757.84 1223.37 2743.65 1265.73 2736.28 1310.94C2710.62 1468.25 2726.78 1642.75 2742.42 1811.5C2747.85 1870.15 2752.98 1925.57 2756.31 1979.56L2756.66 1985.1L2751.52 1983C2496.94 1878.32 2292.08 1812.45 1998.27 1785.56C1825.34 1769.73 1581.32 1728.5 1415.1 1660.23C1213.48 1577.42 976.597 1392.48 908.796 1337.77C671.225 1146.06 477.526 1048.02 223.229 943.463L218.1 941.354L222.235 937.642C381.948 795.011 525.724 640.031 664.772 490.149C867.552 271.533 1077.25 45.4885 1334.07 -137.423L1336.04 -138.815ZM2635.33 416.104C2234.93 349.228 1737.53 140.022 1336.14 -130.361C1080.8 51.8946 871.898 277.077 669.858 494.869C531.917 643.589 389.31 797.311 231.005 939.132C483.375 1043.15 676.529 1141.4 913.155 1332.35C980.781 1386.92 1216.99 1571.35 1417.74 1653.79C1583.25 1721.77 1826.48 1762.85 1998.92 1778.64C2291.6 1805.43 2496.21 1870.75 2749.03 1974.45C2745.7 1922.32 2740.74 1868.74 2735.49 1812.14C2719.82 1642.95 2703.61 1468.01 2729.42 1309.83C2736.89 1264.06 2751.16 1221.41 2764.97 1180.18C2784.1 1123.03 2802.16 1069.05 2803.44 1007.84C2806.83 845.56 2732.12 658.821 2666.2 494.054C2655.47 467.242 2645.05 441.169 2635.33 416.104Z" fill="#1A1E2A" fill-opacity="0.6"/>
<path d="M1466.91 -49.654L1470.08 -43.4707C1285.16 51.2735 1141.26 166.114 1042.36 297.883C987 395.719 932.396 496.2 880.3 596.149L879.744 596.933C729.927 754.969 571.341 918.466 449.914 1043.23L444.934 1038.39C566.247 913.713 724.675 750.41 874.363 592.501C926.415 492.625 980.985 392.215 1036.55 294.074C1136.34 161.088 1281.04 45.5603 1466.91 -49.654Z" fill="#1A1E2A" fill-opacity="0.6"/>
<path d="M1595.04 20.5755L1597.72 26.9992C1435.17 94.9401 1298.11 211.174 1201.37 363.157C1183.75 401.396 1164.37 441.819 1143.85 484.612C1113.59 547.732 1082.3 613.007 1055.78 673.166C1049.68 687.028 1041.91 699.851 1032.69 711.276C896.606 879.878 776.936 1026.13 666.858 1158.42L661.503 1153.96C771.57 1021.71 891.216 875.469 1027.28 706.912C1036.11 695.96 1043.56 683.656 1049.43 670.372C1075.98 610.108 1107.3 544.782 1137.59 481.616C1158.08 438.831 1177.45 398.43 1195.28 359.83C1293.02 206.237 1431.17 89.0686 1595.04 20.5755Z" fill="#1A1E2A" fill-opacity="0.6"/>
<path d="M1703.49 81.8092L1708.39 86.7556C1485.34 307.759 1322.48 589.107 1164.99 861.207C1077.29 1012.71 986.614 1169.37 887.018 1312.74L881.308 1308.76C980.737 1165.62 1071.34 1009.1 1158.96 857.724C1316.69 585.23 1479.79 303.471 1703.49 81.8092Z" fill="#1A1E2A" fill-opacity="0.6"/>
<path d="M1817.29 138.854L1823.32 142.333C1695.59 364.548 1572.42 594.697 1453.29 817.255C1338.02 1032.67 1218.81 1255.39 1095.55 1470.79L1089.52 1467.35C1212.72 1252.03 1331.9 1029.34 1447.17 813.978C1566.31 591.36 1689.51 361.18 1817.29 138.854Z" fill="#1A1E2A" fill-opacity="0.6"/>
<path d="M1935.25 193.857L1941.56 196.777C1819.52 459.966 1702.43 722.899 1589.19 977.16C1498.32 1181.19 1404.37 1392.18 1307.84 1603.36L1301.52 1600.48C1398.03 1389.32 1491.98 1178.36 1582.83 974.329C1696.09 720.046 1813.19 457.09 1935.25 193.857Z" fill="#1A1E2A" fill-opacity="0.6"/>
<path d="M2055.78 244.524L2062.32 246.874L1980.11 474.996C1830.31 890.67 1688.83 1283.3 1537.74 1697.71L1531.21 1695.33C1682.29 1280.94 1823.77 888.305 1973.56 472.634L2055.78 244.524Z" fill="#1A1E2A" fill-opacity="0.6"/>
<path d="M2178.9 290.825L2185.63 292.618C2050.23 804.591 1920.66 1281.98 1789.51 1752.09L1782.8 1750.21C1913.95 1280.14 2043.52 802.777 2178.9 290.825Z" fill="#1A1E2A" fill-opacity="0.6"/>
<path d="M2282.36 327.598L2289.29 327.098C2314.26 671.61 2223.97 1023.26 2136.65 1363.34C2100.99 1502.2 2064.13 1645.79 2036.82 1783.83L2030 1782.48C2057.34 1644.26 2094.24 1500.56 2129.91 1361.61C2217.09 1022.08 2307.24 670.972 2282.36 327.598Z" fill="#1A1E2A" fill-opacity="0.6"/>
<path d="M402.364 768.981C678.168 882.388 846.313 995.136 1078.09 1176.34C1195.41 1268.06 1380.41 1386.58 1509.36 1430.06C1604.25 1462.05 1726.53 1477.99 1844.78 1493.41C1902.47 1500.94 1956.96 1508.03 2005.6 1516.71C2276.81 1565.06 2480.32 1624.13 2731.46 1727.39L2728.81 1733.83C2478.17 1630.77 2275.06 1571.81 2004.37 1523.55C1955.91 1514.91 1901.49 1507.82 1843.88 1500.3C1725.3 1484.85 1602.68 1468.86 1507.15 1436.65C1377.42 1392.9 1191.58 1273.89 1073.81 1181.81C842.539 1001.02 674.781 888.51 399.716 775.42L402.364 768.981Z" fill="#1A1E2A" fill-opacity="0.6"/>
<path d="M546.314 618.049C740.655 697.96 924.218 773.428 1085.74 917.744C1249.46 1063.99 1422.62 1161.1 1600.38 1206.34C1679.47 1226.48 1760.81 1234.14 1839.48 1241.56C1924.69 1249.6 2012.81 1257.91 2100.29 1281.95C2259.42 1325.67 2412.69 1391.82 2560.92 1455.8C2613.24 1478.37 2667.33 1501.71 2720.93 1523.75L2718.29 1530.19C2664.63 1508.12 2610.5 1484.76 2558.17 1462.17C2410.16 1398.3 2257.11 1332.25 2098.45 1288.64C2011.56 1264.78 1923.75 1256.5 1838.83 1248.49C1759.9 1241.05 1678.29 1233.35 1598.67 1213.08C1419.81 1167.57 1245.67 1069.94 1081.11 922.913C920.477 779.404 737.446 704.155 543.667 624.488L546.314 618.049Z" fill="#1A1E2A" fill-opacity="0.6"/>
<path d="M666.492 496.734C894.402 590.448 1021.12 655.333 1215.94 814.746C1341.49 917.472 1526.9 1012.09 1666.83 1044.85C1743.43 1062.79 1816.74 1067 1887.63 1071.06C1978.98 1076.31 2073.43 1081.73 2174.28 1116.85C2299.35 1160.4 2427.76 1215.6 2551.94 1268.98C2609.97 1293.93 2669.99 1319.73 2727.84 1343.51L2725.2 1349.95C2667.29 1326.14 2607.25 1300.33 2549.19 1275.37C2425.13 1222.04 2296.84 1166.89 2172.01 1123.42C2072.06 1088.63 1978.11 1083.23 1887.24 1078.01C1816.04 1073.91 1742.43 1069.7 1665.24 1051.62C1524.39 1018.66 1337.82 923.456 1211.54 820.114C1017.4 661.28 891.082 596.597 663.844 503.173L666.492 496.734Z" fill="#1A1E2A" fill-opacity="0.6"/>
<path d="M769.415 381.476C947.655 449.454 1081.71 540.026 1211.34 627.624C1372 736.192 1523.76 838.731 1729 867.039C2084.88 916.112 2405.85 1048.1 2745.67 1187.84L2764.68 1195.66L2762.03 1202.1L2743.03 1194.28C2403.63 1054.71 2083.05 922.89 1728.04 873.912C1521.21 845.404 1368.8 742.422 1207.45 633.387C1078.14 546.018 944.43 455.655 766.931 387.956L769.415 381.476Z" fill="#1A1E2A" fill-opacity="0.6"/>
<path d="M864.29 282.99C987.921 342.115 1088.22 395.821 1185.21 447.742C1323.92 522.009 1443.69 586.129 1589.34 642.633C1720.41 693.488 1866.49 741.593 2035.62 797.294C2238.11 863.983 2490.1 946.968 2801.27 1063.16L2798.83 1069.66C2487.8 953.537 2235.87 870.563 2033.45 803.901C1864.22 748.168 1718.07 700.039 1586.83 649.127C1440.79 592.455 1320.83 528.244 1181.93 453.877C1085.01 401.98 984.772 348.323 861.29 289.244L864.29 282.99Z" fill="#1A1E2A" fill-opacity="0.6"/>
<path d="M947.495 196.673C1114.62 266.439 1278.49 336.18 1423.07 397.694C1526.16 441.572 1623.52 483.004 1703.16 516.375C1771.75 545.126 1899.34 593.348 2060.88 654.389C2275.16 735.379 2541.83 836.171 2808.85 943.494L2806.26 949.945C2539.31 842.649 2272.66 741.866 2058.42 660.897C1896.82 599.827 1769.17 551.575 1700.47 522.796C1620.81 489.412 1523.44 447.968 1420.34 404.093C1275.78 342.573 1111.93 272.859 944.819 203.088L947.495 196.673Z" fill="#1A1E2A" fill-opacity="0.6"/>
<path d="M1027.4 120.601C1268.49 219.01 1513.93 317.033 1751.29 411.828C2091.25 547.596 2442.8 687.998 2786.89 831.678L2784.22 838.092C2440.17 694.432 2088.65 554.048 1748.71 418.276C1511.34 323.488 1265.88 225.452 1024.77 127.034L1027.4 120.601Z" fill="#1A1E2A" fill-opacity="0.6"/>
<path d="M1103.16 52.8614C1379.12 166.332 1659.65 280.692 1930.93 391.278C2202.6 502.028 2483.54 616.551 2759.85 730.167L2757.21 736.605C2480.9 623.001 2199.98 508.475 1928.29 397.71C1657.01 287.125 1376.49 172.764 1100.51 59.3004L1103.16 52.8614Z" fill="#1A1E2A" fill-opacity="0.6"/>
<path d="M1177.4 -10.8732C1676.32 219.056 2181.69 426.019 2722.39 621.846L2720.02 628.387C2179.14 432.491 1673.59 225.455 1174.51 -4.55051L1177.4 -10.8732Z" fill="#1A1E2A" fill-opacity="0.6"/>
<path d="M1261.2 -81.0259C1713.31 186.717 2229.71 401.714 2677.99 508.818L2676.38 515.594C2227.44 408.327 1710.34 193.049 1257.66 -75.0591L1261.2 -81.0259Z" fill="#1A1E2A" fill-opacity="0.6"/>
</svg>
