<?xml version="1.0" encoding="utf-8"?><svg viewBox="0 0 502.66 502.66" xmlns="http://www.w3.org/2000/svg" xmlns:xlink="http://www.w3.org/1999/xlink"><style>:root>svg{display:none}:root>svg:target{display:block}</style><svg viewBox="0 0 502.664 502.664" xml:space="preserve" id="icon" xmlns="http://www.w3.org/2000/svg"><path d="M153.821 358.226 0 274.337v-46.463l153.821-83.414v54.574L46.636 250.523l107.185 53.431v54.272zm26.273 29.358L282.103 115.08h32.227L212.084 387.584h-31.99zm168.749-29.358v-54.272l107.164-52.999-107.164-52.59v-53.927l153.821 83.522v46.183l-153.821 84.083z"/></svg><svg viewBox="0 0 182 31" id="logo" xmlns="http://www.w3.org/2000/svg"><path d="M84.333 0a4.77 4.77 0 0 1 3.365 1.39l.174.182 10.653 11.794 9.944 11.01a.795.795 0 0 0 .59.262h6.976a.795.795 0 0 0 .795-.795V7.153a.795.795 0 0 0-.795-.796h-7.095a.794.794 0 0 0-.562.233l-3.838 3.838a.795.795 0 0 1-1.124 0l-3.373-3.372a.796.796 0 0 1 0-1.124l4.536-4.536A4.77 4.77 0 0 1 107.951 0h10.468a4.77 4.77 0 0 1 4.769 4.769v21.458a4.77 4.77 0 0 1-4.769 4.768h-10.42a4.769 4.769 0 0 1-3.539-1.572L93.807 17.628 83.863 6.619a.795.795 0 0 0-.59-.262h-6.976a.795.795 0 0 0-.795.795v16.69c0 .44.356.796.795.796h7.096c.21 0 .412-.084.561-.233l3.839-3.838a.795.795 0 0 1 1.123 0l3.373 3.372c.31.31.31.814 0 1.124l-4.536 4.536a4.77 4.77 0 0 1-3.372 1.396H73.913a4.769 4.769 0 0 1-4.769-4.768V4.769A4.769 4.769 0 0 1 73.914 0h10.419ZM6.357 30.201a.795.795 0 0 1-.794.795H.795A.795.795 0 0 1 0 30.201V.795C0 .355.356 0 .795 0h4.768c.439 0 .794.356.794.795V30.2Zm32.586-4.057a4.77 4.77 0 0 1-4.768 4.768h-2.736a4.769 4.769 0 0 1-4.368-2.853L17.61 6.48a.066.066 0 0 0-.126.026V30.2a.795.795 0 0 1-.794.795h-4.768a.795.795 0 0 1-.795-.795V4.853A4.769 4.769 0 0 1 15.895.084h2.737a4.77 4.77 0 0 1 4.214 2.535l.153.318 9.46 21.578a.066.066 0 0 0 .126-.027V.795c0-.44.356-.795.795-.795h4.769c.438 0 .794.356.794.795v25.349ZM65.965 5.563a.795.795 0 0 1-.795.794H50.864a.795.795 0 0 0-.795.795v4.77c0 .438.356.794.795.794h8.203c.438 0 .794.356.794.795v4.768a.795.795 0 0 1-.794.795h-8.203a.795.795 0 0 0-.795.795V30.2a.795.795 0 0 1-.794.795h-4.768a.795.795 0 0 1-.795-.795V4.77A4.769 4.769 0 0 1 48.48 0h16.69c.439 0 .795.356.795.795v4.768Zm87.423 0a.795.795 0 0 1-.795.794h-8.742a.794.794 0 0 0-.794.795V30.2a.795.795 0 0 1-.795.795h-4.769a.795.795 0 0 1-.795-.795V7.152a.795.795 0 0 0-.795-.795h-8.742a.795.795 0 0 1-.795-.794V.795c0-.44.356-.795.795-.795h25.432c.439 0 .795.356.795.795v4.768Zm9.537 7.947c0 .44.356.795.795.796h11.127a.795.795 0 0 0 .795-.795V.795c0-.44.355-.795.794-.795h4.768c.439 0 .795.356.795.795V13.51a7.153 7.153 0 0 1-7.152 7.153h-1.59a.795.795 0 0 0-.795.795V30.2a.795.795 0 0 1-.795.795h-4.768a.795.795 0 0 1-.795-.795v-8.74a.794.794 0 0 0-.794-.795h-1.59a7.154 7.154 0 0 1-7.153-7.153V.795c0-.44.356-.795.795-.795h4.768c.439 0 .795.356.795.795V13.51Z"/></svg></svg>