<svg width="83" height="83" viewBox="0 0 83 83" fill="none" xmlns="http://www.w3.org/2000/svg">
<rect width="56.102" height="50" rx="5" fill="url(#paint0_linear_3041_403)"/>
<foreignObject x="32.5089" y="0.61342" width="47.2517" height="50.8161"><div xmlns="http://www.w3.org/1999/xhtml" style="backdrop-filter:blur(3.21px);clip-path:url(#bgblur_0_3041_403_clip_path);height:100%;width:100%"></div></foreignObject><g filter="url(#filter0_i_3041_403)" data-figma-bg-blur-radius="6.42857">
<path d="M41.4537 30.4167C38.0988 28.5247 38.0988 23.5182 41.4537 21.6263L66.2306 7.6538C69.4348 5.84689 73.332 8.25896 73.332 12.049L73.332 39.994C73.332 43.784 69.4348 46.196 66.2306 44.3891L41.4537 30.4167Z" fill="#F1BCE7" fill-opacity="0.5"/>
</g>
<defs>
<filter id="filter0_i_3041_403" x="32.5089" y="0.61342" width="47.2517" height="50.8161" filterUnits="userSpaceOnUse" color-interpolation-filters="sRGB">
<feFlood flood-opacity="0" result="BackgroundImageFix"/>
<feBlend mode="normal" in="SourceGraphic" in2="BackgroundImageFix" result="shape"/>
<feColorMatrix in="SourceAlpha" type="matrix" values="0 0 0 0 0 0 0 0 0 0 0 0 0 0 0 0 0 0 127 0" result="hardAlpha"/>
<feOffset dx="0.321429" dy="0.160714"/>
<feGaussianBlur stdDeviation="0.803571"/>
<feComposite in2="hardAlpha" operator="arithmetic" k2="-1" k3="1"/>
<feColorMatrix type="matrix" values="0 0 0 0 1 0 0 0 0 1 0 0 0 0 1 0 0 0 0.6 0"/>
<feBlend mode="normal" in2="shape" result="effect1_innerShadow_3041_403"/>
</filter>
<clipPath id="bgblur_0_3041_403_clip_path" transform="translate(-32.5089 -0.61342)"><path d="M41.4537 30.4167C38.0988 28.5247 38.0988 23.5182 41.4537 21.6263L66.2306 7.6538C69.4348 5.84689 73.332 8.25896 73.332 12.049L73.332 39.994C73.332 43.784 69.4348 46.196 66.2306 44.3891L41.4537 30.4167Z"/>
</clipPath><linearGradient id="paint0_linear_3041_403" x1="3.80353" y1="15.2542" x2="53.6089" y2="9.93199" gradientUnits="userSpaceOnUse">
<stop stop-color="#CD0D9F"/>
<stop offset="1" stop-color="#FD18C5"/>
</linearGradient>
</defs>
</svg>
