{
	"asset":{
		"generator":"Khronos glTF Blender I/O v4.1.63",
		"version":"2.0"
	},
	"scene":0,
	"scenes":[
		{
			"name":"Scene",
			"nodes":[
				0
			]
		}
	],
	"nodes":[
		{
			"mesh":0,
			"name":"Text.001",
			"rotation":[
				0,
				-0.7071068286895752,
				0.7071068286895752,
				1.1520233300643667e-07
			],
			"scale":[
				1.7888846397399902,
				0.2564803957939148,
				1.580671787261963
			],
			"translation":[
				0.5217127799987793,
				-0.2862522304058075,
				-0.0496969074010849
			]
		}
	],
	"materials":[
		{
			"doubleSided":true,
			"name":"Material.004",
			"pbrMetallicRoughness":{
				"baseColorFactor":[
					0.800000011920929,
					0.800000011920929,
					0.800000011920929,
					1
				],
				"metallicFactor":0.07727272808551788,
				"roughnessFactor":0.8636363744735718
			}
		},
		{
			"doubleSided":true,
			"name":"Material",
			"pbrMetallicRoughness":{
				"baseColorFactor":[
					0.8796005845069885,
					0.37360188364982605,
					0.04452211409807205,
					1
				],
				"metallicFactor":0.699999988079071,
				"roughnessFactor":0.5
			}
		},
		{
			"doubleSided":true,
			"name":"Material.003",
			"pbrMetallicRoughness":{
				"baseColorFactor":[
					0.6724388599395752,
					0.6724438667297363,
					0.6724435687065125,
					1
				],
				"metallicFactor":0
			}
		}
	],
	"meshes":[
		{
			"name":"\u20bfitcoin.001",
			"primitives":[
				{
					"attributes":{
						"POSITION":0,
						"NORMAL":1,
						"TEXCOORD_0":2
					},
					"indices":3,
					"material":0
				},
				{
					"attributes":{
						"POSITION":4,
						"NORMAL":5,
						"TEXCOORD_0":6
					},
					"indices":7,
					"material":1
				},
				{
					"attributes":{
						"POSITION":8,
						"NORMAL":9,
						"TEXCOORD_0":10
					},
					"indices":11,
					"material":2
				}
			]
		}
	],
	"accessors":[
		{
			"bufferView":0,
			"componentType":5126,
			"count":4256,
			"max":[
				0.4510159492492676,
				0.10000001639127731,
				0.062046442180871964
			],
			"min":[
				0.07097159326076508,
				-0.10000000149011612,
				-0.5547895431518555
			],
			"type":"VEC3"
		},
		{
			"bufferView":1,
			"componentType":5126,
			"count":4256,
			"type":"VEC3"
		},
		{
			"bufferView":2,
			"componentType":5126,
			"count":4256,
			"type":"VEC2"
		},
		{
			"bufferView":3,
			"componentType":5123,
			"count":15864,
			"type":"SCALAR"
		},
		{
			"bufferView":4,
			"componentType":5126,
			"count":23806,
			"max":[
				0.8287084102630615,
				0.4370442032814026,
				0.37092143297195435
			],
			"min":[
				-0.2893066704273224,
				-0.8245729804039001,
				-0.8943633437156677
			],
			"type":"VEC3"
		},
		{
			"bufferView":5,
			"componentType":5126,
			"count":23806,
			"type":"VEC3"
		},
		{
			"bufferView":6,
			"componentType":5126,
			"count":23806,
			"type":"VEC2"
		},
		{
			"bufferView":7,
			"componentType":5123,
			"count":108456,
			"type":"SCALAR"
		},
		{
			"bufferView":8,
			"componentType":5126,
			"count":4387,
			"max":[
				0.43070557713508606,
				-0.25827252864837646,
				0.06204642727971077
			],
			"min":[
				0.05066120624542236,
				-0.45827361941337585,
				-0.5547895431518555
			],
			"type":"VEC3"
		},
		{
			"bufferView":9,
			"componentType":5126,
			"count":4387,
			"type":"VEC3"
		},
		{
			"bufferView":10,
			"componentType":5126,
			"count":4387,
			"type":"VEC2"
		},
		{
			"bufferView":11,
			"componentType":5123,
			"count":15864,
			"type":"SCALAR"
		}
	],
	"bufferViews":[
		{
			"buffer":0,
			"byteLength":51072,
			"byteOffset":0,
			"target":34962
		},
		{
			"buffer":0,
			"byteLength":51072,
			"byteOffset":51072,
			"target":34962
		},
		{
			"buffer":0,
			"byteLength":34048,
			"byteOffset":102144,
			"target":34962
		},
		{
			"buffer":0,
			"byteLength":31728,
			"byteOffset":136192,
			"target":34963
		},
		{
			"buffer":0,
			"byteLength":285672,
			"byteOffset":167920,
			"target":34962
		},
		{
			"buffer":0,
			"byteLength":285672,
			"byteOffset":453592,
			"target":34962
		},
		{
			"buffer":0,
			"byteLength":190448,
			"byteOffset":739264,
			"target":34962
		},
		{
			"buffer":0,
			"byteLength":216912,
			"byteOffset":929712,
			"target":34963
		},
		{
			"buffer":0,
			"byteLength":52644,
			"byteOffset":1146624,
			"target":34962
		},
		{
			"buffer":0,
			"byteLength":52644,
			"byteOffset":1199268,
			"target":34962
		},
		{
			"buffer":0,
			"byteLength":35096,
			"byteOffset":1251912,
			"target":34962
		},
		{
			"buffer":0,
			"byteLength":31728,
			"byteOffset":1287008,
			"target":34963
		}
	],
	"buffers":[
		{
			"byteLength":1318736,
			"uri":"bitcoin.bin"
		}
	]
}
