{
	"asset":{
		"generator":"Khronos glTF Blender I/O v4.1.63",
		"version":"2.0"
	},
	"extensionsUsed":[
		"KHR_materials_clearcoat",
		"KHR_materials_transmission",
		"KHR_materials_specular"
	],
	"scene":0,
	"scenes":[
		{
			"name":"Scene",
			"nodes":[
				0,
				1
			]
		}
	],
	"nodes":[
		{
			"mesh":0,
			"name":"Cylinder",
			"scale":[
				1.022699236869812,
				1.022699236869812,
				0.06307423114776611
			],
			"translation":[
				0.0479813814163208,
				0.11829463392496109,
				0.005276314448565245
			]
		},
		{
			"mesh":1,
			"name":"Curve",
			"scale":[
				4.79545259475708,
				4.79545259475708,
				9.91659927368164
			],
			"translation":[
				-0.30317509174346924,
				-0.40766245126724243,
				0.045270875096321106
			]
		}
	],
	"materials":[
		{
			"doubleSided":true,
			"extensions":{
				"KHR_materials_clearcoat":{
					"clearcoatFactor":0.10000000149011612,
					"clearcoatRoughnessFactor":0.029999999329447746
				},
				"KHR_materials_transmission":{
					"transmissionFactor":0.10000000149011612
				},
				"KHR_materials_specular":{
					"specularFactor":0.800000011920929
				}
			},
			"name":"Material",
			"pbrMetallicRoughness":{
				"baseColorFactor":[
					0.8796177506446838,
					0.3712381422519684,
					0.04518633335828781,
					1
				],
				"metallicFactor":0.699999988079071,
				"roughnessFactor":0.5
			}
		},
		{
			"doubleSided":true,
			"emissiveFactor":[
				0.30000001192092896,
				0.30000001192092896,
				0.30000001192092896
			],
			"name":"Material.003",
			"pbrMetallicRoughness":{
				"baseColorFactor":[
					0.6724388599395752,
					0.6724438667297363,
					0.6724435687065125,
					1
				],
				"metallicFactor":0
			}
		}
	],
	"meshes":[
		{
			"name":"Cylinder",
			"primitives":[
				{
					"attributes":{
						"POSITION":0,
						"NORMAL":1,
						"TEXCOORD_0":2
					},
					"indices":3,
					"material":0
				}
			]
		},
		{
			"name":"Curve",
			"primitives":[
				{
					"attributes":{
						"POSITION":4,
						"NORMAL":5,
						"TEXCOORD_0":6
					},
					"indices":7,
					"material":1
				}
			]
		}
	],
	"accessors":[
		{
			"bufferView":0,
			"componentType":5126,
			"count":43352,
			"max":[
				1,
				1,
				2.28118634223938
			],
			"min":[
				-0.9999999403953552,
				-0.9999999403953552,
				-2.28118634223938
			],
			"type":"VEC3"
		},
		{
			"bufferView":1,
			"componentType":5126,
			"count":43352,
			"type":"VEC3"
		},
		{
			"bufferView":2,
			"componentType":5126,
			"count":43352,
			"type":"VEC2"
		},
		{
			"bufferView":3,
			"componentType":5123,
			"count":237678,
			"type":"SCALAR"
		},
		{
			"bufferView":4,
			"componentType":5126,
			"count":3112,
			"max":[
				0.16519680619239807,
				0.2289976179599762,
				0.003024233039468527
			],
			"min":[
				2.8461217880249023e-05,
				0.00026410818099975586,
				-0.010824700817465782
			],
			"type":"VEC3"
		},
		{
			"bufferView":5,
			"componentType":5126,
			"count":3112,
			"type":"VEC3"
		},
		{
			"bufferView":6,
			"componentType":5126,
			"count":3112,
			"type":"VEC2"
		},
		{
			"bufferView":7,
			"componentType":5123,
			"count":8040,
			"type":"SCALAR"
		}
	],
	"bufferViews":[
		{
			"buffer":0,
			"byteLength":520224,
			"byteOffset":0,
			"target":34962
		},
		{
			"buffer":0,
			"byteLength":520224,
			"byteOffset":520224,
			"target":34962
		},
		{
			"buffer":0,
			"byteLength":346816,
			"byteOffset":1040448,
			"target":34962
		},
		{
			"buffer":0,
			"byteLength":475356,
			"byteOffset":1387264,
			"target":34963
		},
		{
			"buffer":0,
			"byteLength":37344,
			"byteOffset":1862620,
			"target":34962
		},
		{
			"buffer":0,
			"byteLength":37344,
			"byteOffset":1899964,
			"target":34962
		},
		{
			"buffer":0,
			"byteLength":24896,
			"byteOffset":1937308,
			"target":34962
		},
		{
			"buffer":0,
			"byteLength":16080,
			"byteOffset":1962204,
			"target":34963
		}
	],
	"buffers":[
		{
			"byteLength":1978284,
			"uri":"bitcoin.bin"
		}
	]
}
